<svg width="108" height="108" viewBox="0 0 108 108" fill="none" xmlns="http://www.w3.org/2000/svg">
<g filter="url(#filter0_d_208_24)">
<circle cx="54" cy="50" r="50" fill="#F3CE4C"/>
</g>
<g clip-path="url(#clip0_208_24)" filter="url(#filter1_d_208_24)">
<g filter="url(#filter2_d_208_24)">
<path d="M37.4823 81.7701C33.6167 81.5943 31.5168 80.951 30.1201 80.4062C28.2694 79.6857 26.95 78.8279 25.561 77.4409C24.1721 76.0539 23.3124 74.7344 22.5957 72.8837C22.0509 71.487 21.4076 69.3871 21.2318 65.5216C21.0386 61.343 21 60.0893 21 49.5029C21 38.9165 21.0425 37.6647 21.2299 33.4823C21.4057 29.6167 22.0528 27.5207 22.5938 26.1201C23.3143 24.2694 24.174 22.95 25.5591 21.5591C26.9461 20.1721 28.2656 19.3105 30.1182 18.5938C31.5149 18.049 33.6148 17.4057 37.4804 17.2299C41.6608 17.0386 42.9165 17 53.499 17C64.0854 17 65.3372 17.0425 69.5196 17.2299C73.3852 17.4057 75.4812 18.0528 76.8818 18.5938C78.7325 19.3105 80.0519 20.1721 81.4409 21.5591C82.8299 22.9461 83.6857 24.2675 84.4062 26.1182C84.951 27.5149 85.5943 29.6148 85.7701 33.4804C85.9614 37.6628 86 38.9146 86 49.501C86 60.0835 85.9614 61.3392 85.7701 65.5216C85.5943 69.3871 84.9472 71.487 84.4062 72.8837C83.6857 74.7344 82.8279 76.0539 81.4409 77.4409C80.0539 78.8279 78.7325 79.6857 76.8818 80.4062C75.4851 80.951 73.3852 81.5943 69.5196 81.7701C65.3411 81.9614 64.0854 82 53.499 82C42.9165 82 41.6608 81.9633 37.4823 81.7701Z" fill="url(#paint0_radial_208_24)"/>
</g>
<g filter="url(#filter3_d_208_24)">
<path d="M37.4823 81.7701C33.6167 81.5943 31.5168 80.951 30.1201 80.4062C28.2694 79.6857 26.95 78.8279 25.561 77.4409C24.1721 76.0539 23.3124 74.7344 22.5957 72.8837C22.0509 71.487 21.4076 69.3871 21.2318 65.5216C21.0386 61.343 21 60.0893 21 49.5029C21 38.9165 21.0425 37.6647 21.2299 33.4823C21.4057 29.6167 22.0528 27.5207 22.5938 26.1201C23.3143 24.2694 24.174 22.95 25.5591 21.5591C26.9461 20.1721 28.2656 19.3105 30.1182 18.5938C31.5149 18.049 33.6148 17.4057 37.4804 17.2299C41.6608 17.0386 42.9165 17 53.499 17C64.0854 17 65.3372 17.0425 69.5196 17.2299C73.3852 17.4057 75.4812 18.0528 76.8818 18.5938C78.7325 19.3105 80.0519 20.1721 81.4409 21.5591C82.8299 22.9461 83.6857 24.2675 84.4062 26.1182C84.951 27.5149 85.5943 29.6148 85.7701 33.4804C85.9614 37.6628 86 38.9146 86 49.501C86 60.0835 85.9614 61.3392 85.7701 65.5216C85.5943 69.3871 84.9472 71.487 84.4062 72.8837C83.6857 74.7344 82.8279 76.0539 81.4409 77.4409C80.0539 78.8279 78.7325 79.6857 76.8818 80.4062C75.4851 80.951 73.3852 81.5943 69.5196 81.7701C65.3411 81.9614 64.0854 82 53.499 82C42.9165 82 41.6608 81.9633 37.4823 81.7701Z" fill="url(#paint1_radial_208_24)" shape-rendering="crispEdges"/>
</g>
<g filter="url(#filter4_d_208_24)">
<path d="M45.2513 49.639C45.2513 45.1937 48.7934 41.5891 53.1641 41.5891C57.5347 41.5891 61.0788 45.1937 61.0788 49.639C61.0788 54.0843 57.5347 57.6889 53.1641 57.6889C48.7934 57.6889 45.2513 54.0843 45.2513 49.639ZM40.9727 49.639C40.9727 56.4873 46.4308 62.0386 53.1641 62.0386C59.8974 62.0386 65.3554 56.4873 65.3554 49.639C65.3554 42.7907 59.8974 37.2394 53.1641 37.2394C46.4308 37.2394 40.9729 42.7903 40.9729 49.639M62.9892 36.7477C62.9889 37.3209 63.1558 37.8812 63.4687 38.3578C63.7816 38.8345 64.2264 39.2061 64.7469 39.4256C65.2674 39.6452 65.8402 39.7028 66.3929 39.5912C66.9457 39.4796 67.4534 39.2038 67.852 38.7987C68.2506 38.3936 68.5222 37.8774 68.6323 37.3154C68.7425 36.7533 68.6863 36.1706 68.4709 35.6411C68.2554 35.1115 67.8904 34.6588 67.422 34.3402C66.9536 34.0216 66.4029 33.8514 65.8394 33.8512H65.8382C65.0829 33.8515 64.3586 34.1568 63.8244 34.6999C63.2902 35.243 62.9898 35.9795 62.9892 36.7477ZM43.5722 69.2949C41.2575 69.1877 39.9993 68.7955 39.1632 68.4642C38.0547 68.0253 37.2638 67.5025 36.4323 66.658C35.6007 65.8134 35.086 65.0097 34.6564 63.8823C34.3304 63.0323 33.9449 61.7523 33.8396 59.398C33.7245 56.8526 33.7015 56.088 33.7015 49.6394C33.7015 43.1908 33.7264 42.4283 33.8396 39.8808C33.9451 37.5265 34.3335 36.2489 34.6564 35.3964C35.0879 34.269 35.6019 33.4646 36.4323 32.6189C37.2627 31.7731 38.0528 31.2496 39.1632 30.8126C39.9989 30.4811 41.2575 30.0889 43.5722 29.9819C46.0748 29.8649 46.8266 29.8415 53.1641 29.8415C59.5015 29.8415 60.2541 29.8664 62.7588 29.9823C65.0736 30.0895 66.3296 30.4846 67.1678 30.813C68.2763 31.25 69.0672 31.7747 69.8987 32.6192C70.7303 33.4638 71.2431 34.2694 71.6746 35.3968C72.0006 36.2468 72.3861 37.5268 72.4914 39.8812C72.6065 42.4287 72.6295 43.1911 72.6295 49.6398C72.6295 56.0884 72.6065 56.8509 72.4914 59.3984C72.386 61.7527 71.9985 63.0323 71.6746 63.8827C71.2431 65.0101 70.7291 65.8145 69.8987 66.6583C69.0683 67.5022 68.2763 68.0257 67.1678 68.4646C66.3321 68.7961 65.0736 69.1883 62.7588 69.2953C60.2562 69.4123 59.5044 69.4357 53.1641 69.4357C46.8238 69.4357 46.0741 69.4123 43.5722 69.2953M43.3756 25.6375C40.8481 25.7545 39.121 26.1621 37.6127 26.7591C36.0516 27.3755 34.7284 28.2025 33.407 29.5444C32.0856 30.8862 31.2745 32.2323 30.6684 33.822C30.0815 35.357 29.6808 37.1127 29.5657 39.6833C29.4487 42.2581 29.4219 43.0812 29.4219 49.639C29.4219 56.1968 29.4487 57.0199 29.5657 59.5946C29.6808 62.1655 30.0815 63.9209 30.6684 65.456C31.2745 67.0437 32.0857 68.3923 33.407 69.7336C34.7282 71.0749 36.0497 71.9007 37.6127 72.5189C39.1239 73.1158 40.8481 73.5235 43.3756 73.6405C45.9085 73.7576 46.7165 73.7868 53.1641 73.7868C59.6117 73.7868 60.421 73.7595 62.9525 73.6405C65.4802 73.5235 67.2062 73.1158 68.7154 72.5189C70.2765 71.9007 71.5998 71.0755 72.9212 69.7336C74.2426 68.3918 75.0519 67.0437 75.6597 65.456C76.2466 63.9209 76.6493 62.1653 76.7625 59.5946C76.8776 57.018 76.9044 56.1968 76.9044 49.639C76.9044 43.0812 76.8776 42.2581 76.7625 39.6833C76.6474 37.1125 76.2466 35.3561 75.6597 33.822C75.0519 32.2342 74.2405 30.8883 72.9212 29.5444C71.6019 28.2004 70.2765 27.3755 68.7173 26.7591C67.2062 26.1621 65.48 25.7526 62.9544 25.6375C60.4226 25.5198 59.6136 25.4912 53.1669 25.4912C46.7203 25.4912 45.9094 25.5184 43.3766 25.6375" fill="white"/>
</g>
</g>
<defs>
<filter id="filter0_d_208_24" x="0" y="0" width="108" height="108" filterUnits="userSpaceOnUse" color-interpolation-filters="sRGB">
<feFlood flood-opacity="0" result="BackgroundImageFix"/>
<feColorMatrix in="SourceAlpha" type="matrix" values="0 0 0 0 0 0 0 0 0 0 0 0 0 0 0 0 0 0 127 0" result="hardAlpha"/>
<feOffset dy="4"/>
<feGaussianBlur stdDeviation="2"/>
<feComposite in2="hardAlpha" operator="out"/>
<feColorMatrix type="matrix" values="0 0 0 0 0 0 0 0 0 0 0 0 0 0 0 0 0 0 0.25 0"/>
<feBlend mode="normal" in2="BackgroundImageFix" result="effect1_dropShadow_208_24"/>
<feBlend mode="normal" in="SourceGraphic" in2="effect1_dropShadow_208_24" result="shape"/>
</filter>
<filter id="filter1_d_208_24" x="17" y="17" width="73" height="73" filterUnits="userSpaceOnUse" color-interpolation-filters="sRGB">
<feFlood flood-opacity="0" result="BackgroundImageFix"/>
<feColorMatrix in="SourceAlpha" type="matrix" values="0 0 0 0 0 0 0 0 0 0 0 0 0 0 0 0 0 0 127 0" result="hardAlpha"/>
<feOffset dy="4"/>
<feGaussianBlur stdDeviation="2"/>
<feComposite in2="hardAlpha" operator="out"/>
<feColorMatrix type="matrix" values="0 0 0 0 0 0 0 0 0 0 0 0 0 0 0 0 0 0 0.25 0"/>
<feBlend mode="normal" in2="BackgroundImageFix" result="effect1_dropShadow_208_24"/>
<feBlend mode="normal" in="SourceGraphic" in2="effect1_dropShadow_208_24" result="shape"/>
</filter>
<filter id="filter2_d_208_24" x="17" y="17" width="73" height="73" filterUnits="userSpaceOnUse" color-interpolation-filters="sRGB">
<feFlood flood-opacity="0" result="BackgroundImageFix"/>
<feColorMatrix in="SourceAlpha" type="matrix" values="0 0 0 0 0 0 0 0 0 0 0 0 0 0 0 0 0 0 127 0" result="hardAlpha"/>
<feOffset dy="4"/>
<feGaussianBlur stdDeviation="2"/>
<feComposite in2="hardAlpha" operator="out"/>
<feColorMatrix type="matrix" values="0 0 0 0 0 0 0 0 0 0 0 0 0 0 0 0 0 0 0.25 0"/>
<feBlend mode="normal" in2="BackgroundImageFix" result="effect1_dropShadow_208_24"/>
<feBlend mode="normal" in="SourceGraphic" in2="effect1_dropShadow_208_24" result="shape"/>
</filter>
<filter id="filter3_d_208_24" x="17" y="17" width="73" height="73" filterUnits="userSpaceOnUse" color-interpolation-filters="sRGB">
<feFlood flood-opacity="0" result="BackgroundImageFix"/>
<feColorMatrix in="SourceAlpha" type="matrix" values="0 0 0 0 0 0 0 0 0 0 0 0 0 0 0 0 0 0 127 0" result="hardAlpha"/>
<feOffset dy="4"/>
<feGaussianBlur stdDeviation="2"/>
<feComposite in2="hardAlpha" operator="out"/>
<feColorMatrix type="matrix" values="0 0 0 0 0 0 0 0 0 0 0 0 0 0 0 0 0 0 0.25 0"/>
<feBlend mode="normal" in2="BackgroundImageFix" result="effect1_dropShadow_208_24"/>
<feBlend mode="normal" in="SourceGraphic" in2="effect1_dropShadow_208_24" result="shape"/>
</filter>
<filter id="filter4_d_208_24" x="25.4219" y="25.4912" width="55.4844" height="56.2959" filterUnits="userSpaceOnUse" color-interpolation-filters="sRGB">
<feFlood flood-opacity="0" result="BackgroundImageFix"/>
<feColorMatrix in="SourceAlpha" type="matrix" values="0 0 0 0 0 0 0 0 0 0 0 0 0 0 0 0 0 0 127 0" result="hardAlpha"/>
<feOffset dy="4"/>
<feGaussianBlur stdDeviation="2"/>
<feComposite in2="hardAlpha" operator="out"/>
<feColorMatrix type="matrix" values="0 0 0 0 0 0 0 0 0 0 0 0 0 0 0 0 0 0 0.25 0"/>
<feBlend mode="normal" in2="BackgroundImageFix" result="effect1_dropShadow_208_24"/>
<feBlend mode="normal" in="SourceGraphic" in2="effect1_dropShadow_208_24" result="shape"/>
</filter>
<radialGradient id="paint0_radial_208_24" cx="0" cy="0" r="1" gradientUnits="userSpaceOnUse" gradientTransform="translate(25.2067 80.5761) scale(82.5259)">
<stop offset="0.09" stop-color="#FA8F21"/>
<stop offset="0.78" stop-color="#D82D7E"/>
</radialGradient>
<radialGradient id="paint1_radial_208_24" cx="0" cy="0" r="1" gradientUnits="userSpaceOnUse" gradientTransform="translate(66.0232 78.4889) scale(72.6235)">
<stop offset="0.64" stop-color="#8C3AAA" stop-opacity="0"/>
<stop offset="1" stop-color="#8C3AAA"/>
</radialGradient>
<clipPath id="clip0_208_24">
<rect width="65" height="65" fill="white" transform="translate(21 17)"/>
</clipPath>
</defs>
</svg>
